<mxfile host="65bd71144e">
    <diagram id="Xdzq0T5rtHVKRT2HmKXS" name="第 1 页">
        <mxGraphModel dx="906" dy="659" grid="1" gridSize="10" guides="1" tooltips="1" connect="1" arrows="1" fold="1" page="1" pageScale="1" pageWidth="827" pageHeight="1169" math="0" shadow="0">
            <root>
                <mxCell id="0"/>
                <mxCell id="1" parent="0"/>
                <mxCell id="2" value="" style="rounded=0;whiteSpace=wrap;html=1;fontFamily=JetBrains Mono;" parent="1" vertex="1">
                    <mxGeometry x="254" y="130" width="320" height="120" as="geometry"/>
                </mxCell>
                <mxCell id="3" value="&lt;div style=&quot;color: rgb(59, 59, 59); background-color: rgb(255, 255, 255); font-size: 16px; line-height: 22px;&quot;&gt;&lt;br&gt;&lt;/div&gt;" style="rounded=0;whiteSpace=wrap;html=1;fontFamily=JetBrains Mono;" parent="1" vertex="1">
                    <mxGeometry x="254" y="250" width="320" height="40" as="geometry"/>
                </mxCell>
                <mxCell id="4" value="" style="rounded=0;whiteSpace=wrap;html=1;fontSize=16;fontFamily=JetBrains Mono;" parent="1" vertex="1">
                    <mxGeometry x="254" y="290" width="320" height="200" as="geometry"/>
                </mxCell>
                <mxCell id="6" value="" style="edgeStyle=none;html=1;fontSize=18;fontFamily=JetBrains Mono;" parent="1" source="5" target="4" edge="1">
                    <mxGeometry relative="1" as="geometry"/>
                </mxCell>
                <mxCell id="5" value="&lt;font&gt;getbuf&lt;/font&gt;&lt;font face=&quot;思源黑体&quot;&gt;分配的40bits空间&lt;/font&gt;" style="text;html=1;strokeColor=none;fillColor=none;align=center;verticalAlign=middle;whiteSpace=wrap;rounded=0;fontSize=18;fontFamily=JetBrains Mono;" parent="1" vertex="1">
                    <mxGeometry x="104" y="375" width="110" height="30" as="geometry"/>
                </mxCell>
                <mxCell id="13" style="edgeStyle=none;html=1;exitX=1;exitY=0.5;exitDx=0;exitDy=0;entryX=0;entryY=0.5;entryDx=0;entryDy=0;fontSize=18;fontFamily=JetBrains Mono;" parent="1" source="10" target="3" edge="1">
                    <mxGeometry relative="1" as="geometry"/>
                </mxCell>
                <mxCell id="10" value="&lt;font face=&quot;思源黑体&quot;&gt;返回地址&lt;/font&gt;&lt;br&gt;&lt;font face=&quot;思源黑体&quot;&gt;(8 bits)&lt;/font&gt;" style="text;html=1;strokeColor=none;fillColor=none;align=center;verticalAlign=middle;whiteSpace=wrap;rounded=0;fontSize=18;fontFamily=JetBrains Mono;" parent="1" vertex="1">
                    <mxGeometry x="104" y="255" width="110" height="30" as="geometry"/>
                </mxCell>
                <mxCell id="16" style="edgeStyle=none;html=1;exitX=1;exitY=0.5;exitDx=0;exitDy=0;entryX=0;entryY=1;entryDx=0;entryDy=0;fontSize=18;fontFamily=JetBrains Mono;" parent="1" source="15" target="4" edge="1">
                    <mxGeometry relative="1" as="geometry"/>
                </mxCell>
                <mxCell id="15" value="&lt;font&gt;%rsp&lt;br&gt;&lt;font face=&quot;思源黑体&quot;&gt;(地址：5561DC78)&lt;/font&gt;&lt;/font&gt;" style="text;html=1;strokeColor=none;fillColor=none;align=center;verticalAlign=middle;whiteSpace=wrap;rounded=0;fontSize=18;fontFamily=JetBrains Mono;" parent="1" vertex="1">
                    <mxGeometry x="54" y="470" width="160" height="40" as="geometry"/>
                </mxCell>
                <mxCell id="17" value="&lt;span style=&quot;color: rgb(59, 59, 59); font-size: 16px; background-color: rgb(255, 255, 255);&quot;&gt;00&lt;/span&gt;" style="rounded=0;whiteSpace=wrap;html=1;fontSize=18;fontFamily=JetBrains Mono;" parent="1" vertex="1">
                    <mxGeometry x="254" y="250" width="40" height="40" as="geometry"/>
                </mxCell>
                <mxCell id="18" value="&lt;span style=&quot;color: rgb(59, 59, 59); font-size: 16px; background-color: rgb(255, 255, 255);&quot;&gt;00&lt;/span&gt;" style="rounded=0;whiteSpace=wrap;html=1;fontSize=18;fontFamily=JetBrains Mono;" parent="1" vertex="1">
                    <mxGeometry x="294" y="250" width="40" height="40" as="geometry"/>
                </mxCell>
                <mxCell id="19" value="&lt;span style=&quot;font-size: 16px;&quot;&gt;00&lt;/span&gt;" style="rounded=0;whiteSpace=wrap;html=1;fontSize=18;fillColor=#d5e8d4;strokeColor=#000000;fontColor=default;labelBackgroundColor=none;labelBorderColor=none;fontFamily=JetBrains Mono;" parent="1" vertex="1">
                    <mxGeometry x="334" y="250" width="40" height="40" as="geometry"/>
                </mxCell>
                <mxCell id="20" value="&lt;span style=&quot;font-size: 16px;&quot;&gt;00&lt;/span&gt;" style="rounded=0;whiteSpace=wrap;html=1;fontSize=18;fillColor=#d5e8d4;strokeColor=#000000;fontColor=default;labelBackgroundColor=none;labelBorderColor=none;fontFamily=JetBrains Mono;" parent="1" vertex="1">
                    <mxGeometry x="374" y="250" width="40" height="40" as="geometry"/>
                </mxCell>
                <mxCell id="21" value="&lt;font&gt;&lt;span style=&quot;font-size: 16px;&quot;&gt;55&lt;/span&gt;&lt;/font&gt;" style="rounded=0;whiteSpace=wrap;html=1;fontSize=18;fillColor=#d5e8d4;strokeColor=#000000;labelBackgroundColor=none;labelBorderColor=none;fontFamily=JetBrains Mono;" parent="1" vertex="1">
                    <mxGeometry x="414" y="250" width="40" height="40" as="geometry"/>
                </mxCell>
                <mxCell id="22" value="&lt;font&gt;&lt;span style=&quot;font-size: 16px;&quot;&gt;61&lt;/span&gt;&lt;/font&gt;" style="rounded=0;whiteSpace=wrap;html=1;fontSize=18;fillColor=#d5e8d4;strokeColor=#000000;labelBackgroundColor=none;labelBorderColor=none;fontFamily=JetBrains Mono;" parent="1" vertex="1">
                    <mxGeometry x="454" y="250" width="40" height="40" as="geometry"/>
                </mxCell>
                <mxCell id="23" value="&lt;font&gt;&lt;span style=&quot;font-size: 16px;&quot;&gt;DC&lt;/span&gt;&lt;/font&gt;" style="rounded=0;whiteSpace=wrap;html=1;fontSize=18;fillColor=#d5e8d4;strokeColor=#000000;labelBackgroundColor=none;labelBorderColor=none;fontFamily=JetBrains Mono;" parent="1" vertex="1">
                    <mxGeometry x="494" y="250" width="40" height="40" as="geometry"/>
                </mxCell>
                <mxCell id="24" value="&lt;span style=&quot;font-size: 16px;&quot;&gt;78&lt;/span&gt;" style="rounded=0;whiteSpace=wrap;html=1;fontSize=18;fillColor=#d5e8d4;strokeColor=#000000;labelBackgroundColor=none;labelBorderColor=none;fontFamily=JetBrains Mono;" parent="1" vertex="1">
                    <mxGeometry x="534" y="250" width="40" height="40" as="geometry"/>
                </mxCell>
                <mxCell id="25" value="&lt;span style=&quot;font-size: 16px;&quot;&gt;00&lt;/span&gt;" style="rounded=0;whiteSpace=wrap;html=1;fontSize=18;fillColor=#d5e8d4;strokeColor=#000000;fontColor=default;labelBackgroundColor=none;labelBorderColor=none;fontFamily=JetBrains Mono;" parent="1" vertex="1">
                    <mxGeometry x="254" y="250" width="40" height="40" as="geometry"/>
                </mxCell>
                <mxCell id="26" value="&lt;span style=&quot;font-size: 16px;&quot;&gt;00&lt;/span&gt;" style="rounded=0;whiteSpace=wrap;html=1;fontSize=18;fillColor=#d5e8d4;strokeColor=#000000;fontColor=default;labelBackgroundColor=none;labelBorderColor=none;fontFamily=JetBrains Mono;" parent="1" vertex="1">
                    <mxGeometry x="294" y="250" width="40" height="40" as="geometry"/>
                </mxCell>
                <mxCell id="27" value="&lt;span style=&quot;font-size: 16px;&quot;&gt;48&lt;/span&gt;" style="rounded=0;whiteSpace=wrap;html=1;fontSize=18;labelBackgroundColor=none;labelBorderColor=none;fillColor=#e3c800;strokeColor=#000000;fontColor=#000000;fontFamily=JetBrains Mono;" parent="1" vertex="1">
                    <mxGeometry x="534" y="450" width="40" height="40" as="geometry"/>
                </mxCell>
                <mxCell id="30" value="&lt;span style=&quot;font-size: 16px;&quot;&gt;C7&lt;/span&gt;" style="rounded=0;whiteSpace=wrap;html=1;fontSize=18;labelBackgroundColor=none;labelBorderColor=none;fillColor=#e3c800;strokeColor=#000000;fontColor=#000000;fontFamily=JetBrains Mono;" parent="1" vertex="1">
                    <mxGeometry x="494" y="450" width="40" height="40" as="geometry"/>
                </mxCell>
                <mxCell id="70" value="&lt;span style=&quot;font-size: 16px;&quot;&gt;00&lt;/span&gt;" style="rounded=0;whiteSpace=wrap;html=1;fontSize=18;labelBackgroundColor=none;labelBorderColor=none;fillColor=#fff2cc;strokeColor=#000000;fontFamily=JetBrains Mono;" parent="1" vertex="1">
                    <mxGeometry x="414" y="450" width="40" height="40" as="geometry"/>
                </mxCell>
                <mxCell id="71" value="&lt;span style=&quot;font-size: 16px;&quot;&gt;00&lt;/span&gt;" style="rounded=0;whiteSpace=wrap;html=1;fontSize=18;labelBackgroundColor=none;labelBorderColor=none;fillColor=#fff2cc;strokeColor=#000000;fontFamily=JetBrains Mono;" parent="1" vertex="1">
                    <mxGeometry x="454" y="450" width="40" height="40" as="geometry"/>
                </mxCell>
                <mxCell id="72" value="&lt;span style=&quot;font-size: 16px;&quot;&gt;A8&lt;/span&gt;" style="rounded=0;whiteSpace=wrap;html=1;fontSize=18;labelBackgroundColor=none;labelBorderColor=none;fillColor=#e3c800;strokeColor=#000000;fontColor=#000000;fontFamily=JetBrains Mono;" parent="1" vertex="1">
                    <mxGeometry x="414" y="450" width="40" height="40" as="geometry"/>
                </mxCell>
                <mxCell id="73" value="&lt;span style=&quot;font-size: 16px;&quot;&gt;C7&lt;/span&gt;" style="rounded=0;whiteSpace=wrap;html=1;fontSize=18;labelBackgroundColor=none;labelBorderColor=none;fillColor=#e3c800;strokeColor=#000000;fontColor=#000000;fontFamily=JetBrains Mono;" parent="1" vertex="1">
                    <mxGeometry x="454" y="450" width="40" height="40" as="geometry"/>
                </mxCell>
                <mxCell id="74" value="&lt;span style=&quot;font-size: 16px;&quot;&gt;68&lt;/span&gt;" style="rounded=0;whiteSpace=wrap;html=1;fontSize=18;labelBackgroundColor=none;labelBorderColor=none;fillColor=#e3c800;strokeColor=#000000;fontColor=#000000;fontFamily=JetBrains Mono;" parent="1" vertex="1">
                    <mxGeometry x="254" y="450" width="40" height="40" as="geometry"/>
                </mxCell>
                <mxCell id="75" value="&lt;span style=&quot;font-size: 16px;&quot;&gt;55&lt;/span&gt;" style="rounded=0;whiteSpace=wrap;html=1;fontSize=18;labelBackgroundColor=none;labelBorderColor=none;fillColor=#e3c800;strokeColor=#000000;fontColor=#000000;fontFamily=JetBrains Mono;" parent="1" vertex="1">
                    <mxGeometry x="294" y="450" width="40" height="40" as="geometry"/>
                </mxCell>
                <mxCell id="76" value="&lt;span style=&quot;font-size: 16px;&quot;&gt;61&lt;/span&gt;" style="rounded=0;whiteSpace=wrap;html=1;fontSize=18;labelBackgroundColor=none;labelBorderColor=none;fillColor=#e3c800;strokeColor=#000000;fontColor=#000000;fontFamily=JetBrains Mono;" parent="1" vertex="1">
                    <mxGeometry x="334" y="450" width="40" height="40" as="geometry"/>
                </mxCell>
                <mxCell id="77" value="&lt;span style=&quot;font-size: 16px;&quot;&gt;DC&lt;/span&gt;" style="rounded=0;whiteSpace=wrap;html=1;fontSize=18;labelBackgroundColor=none;labelBorderColor=none;fillColor=#e3c800;strokeColor=#000000;fontColor=#000000;fontFamily=JetBrains Mono;" parent="1" vertex="1">
                    <mxGeometry x="374" y="450" width="40" height="40" as="geometry"/>
                </mxCell>
                <mxCell id="78" value="&lt;span style=&quot;font-size: 16px;&quot;&gt;00&lt;/span&gt;" style="rounded=0;whiteSpace=wrap;html=1;fontSize=18;labelBackgroundColor=none;labelBorderColor=none;fillColor=#fff2cc;strokeColor=#000000;fontFamily=JetBrains Mono;" parent="1" vertex="1">
                    <mxGeometry x="254" y="410" width="40" height="40" as="geometry"/>
                </mxCell>
                <mxCell id="79" value="&lt;span style=&quot;font-size: 16px;&quot;&gt;00&lt;/span&gt;" style="rounded=0;whiteSpace=wrap;html=1;fontSize=18;labelBackgroundColor=none;labelBorderColor=none;fillColor=#fff2cc;strokeColor=#000000;fontFamily=JetBrains Mono;" parent="1" vertex="1">
                    <mxGeometry x="294" y="410" width="40" height="40" as="geometry"/>
                </mxCell>
                <mxCell id="80" value="&lt;span style=&quot;font-size: 16px;&quot;&gt;00&lt;/span&gt;" style="rounded=0;whiteSpace=wrap;html=1;fontSize=18;labelBackgroundColor=none;labelBorderColor=none;fillColor=#fff2cc;strokeColor=#000000;fontFamily=JetBrains Mono;" parent="1" vertex="1">
                    <mxGeometry x="334" y="410" width="40" height="40" as="geometry"/>
                </mxCell>
                <mxCell id="81" value="&lt;span style=&quot;font-size: 16px;&quot;&gt;C3&lt;/span&gt;" style="rounded=0;whiteSpace=wrap;html=1;fontSize=18;labelBackgroundColor=none;labelBorderColor=none;fillColor=#e3c800;strokeColor=#000000;fontColor=#000000;fontFamily=JetBrains Mono;" parent="1" vertex="1">
                    <mxGeometry x="374" y="410" width="40" height="40" as="geometry"/>
                </mxCell>
                <mxCell id="82" value="&lt;span style=&quot;font-size: 16px;&quot;&gt;FA&lt;/span&gt;" style="rounded=0;whiteSpace=wrap;html=1;fontSize=18;labelBackgroundColor=none;labelBorderColor=none;fillColor=#e3c800;strokeColor=#000000;fontColor=#000000;fontFamily=JetBrains Mono;" parent="1" vertex="1">
                    <mxGeometry x="534" y="410" width="40" height="40" as="geometry"/>
                </mxCell>
                <mxCell id="83" value="&lt;span style=&quot;font-size: 16px;&quot;&gt;18&lt;/span&gt;" style="rounded=0;whiteSpace=wrap;html=1;fontSize=18;labelBackgroundColor=none;labelBorderColor=none;fillColor=#e3c800;strokeColor=#000000;fontColor=#000000;fontFamily=JetBrains Mono;" parent="1" vertex="1">
                    <mxGeometry x="494" y="410" width="40" height="40" as="geometry"/>
                </mxCell>
                <mxCell id="84" value="&lt;span style=&quot;font-size: 16px;&quot;&gt;40&lt;/span&gt;" style="rounded=0;whiteSpace=wrap;html=1;fontSize=18;labelBackgroundColor=none;labelBorderColor=none;fillColor=#e3c800;strokeColor=#000000;fontColor=#000000;fontFamily=JetBrains Mono;" parent="1" vertex="1">
                    <mxGeometry x="454" y="410" width="40" height="40" as="geometry"/>
                </mxCell>
                <mxCell id="85" value="&lt;span style=&quot;font-size: 16px;&quot;&gt;00&lt;/span&gt;" style="rounded=0;whiteSpace=wrap;html=1;fontSize=18;labelBackgroundColor=none;labelBorderColor=none;fillColor=#e3c800;strokeColor=#000000;fontColor=#000000;fontFamily=JetBrains Mono;" parent="1" vertex="1">
                    <mxGeometry x="414" y="410" width="40" height="40" as="geometry"/>
                </mxCell>
                <mxCell id="86" value="&lt;span style=&quot;font-size: 16px;&quot;&gt;00&lt;/span&gt;" style="rounded=0;whiteSpace=wrap;html=1;fontSize=18;labelBackgroundColor=none;labelBorderColor=none;fillColor=#fff2cc;strokeColor=#000000;fontFamily=JetBrains Mono;" parent="1" vertex="1">
                    <mxGeometry x="254" y="370" width="40" height="40" as="geometry"/>
                </mxCell>
                <mxCell id="87" value="&lt;span style=&quot;font-size: 16px;&quot;&gt;00&lt;/span&gt;" style="rounded=0;whiteSpace=wrap;html=1;fontSize=18;labelBackgroundColor=none;labelBorderColor=none;fillColor=#fff2cc;strokeColor=#000000;fontFamily=JetBrains Mono;" parent="1" vertex="1">
                    <mxGeometry x="294" y="370" width="40" height="40" as="geometry"/>
                </mxCell>
                <mxCell id="88" value="&lt;span style=&quot;font-size: 16px;&quot;&gt;00&lt;/span&gt;" style="rounded=0;whiteSpace=wrap;html=1;fontSize=18;labelBackgroundColor=none;labelBorderColor=none;fillColor=#fff2cc;strokeColor=#000000;fontFamily=JetBrains Mono;" parent="1" vertex="1">
                    <mxGeometry x="334" y="370" width="40" height="40" as="geometry"/>
                </mxCell>
                <mxCell id="89" value="&lt;span style=&quot;font-size: 16px;&quot;&gt;00&lt;/span&gt;" style="rounded=0;whiteSpace=wrap;html=1;fontSize=18;labelBackgroundColor=none;labelBorderColor=none;fillColor=#fff2cc;strokeColor=#000000;fontFamily=JetBrains Mono;" parent="1" vertex="1">
                    <mxGeometry x="374" y="370" width="40" height="40" as="geometry"/>
                </mxCell>
                <mxCell id="90" value="&lt;span style=&quot;font-size: 16px;&quot;&gt;00&lt;/span&gt;" style="rounded=0;whiteSpace=wrap;html=1;fontSize=18;labelBackgroundColor=none;labelBorderColor=none;fillColor=#fff2cc;strokeColor=#000000;fontFamily=JetBrains Mono;" parent="1" vertex="1">
                    <mxGeometry x="534" y="370" width="40" height="40" as="geometry"/>
                </mxCell>
                <mxCell id="91" value="&lt;span style=&quot;font-size: 16px;&quot;&gt;00&lt;/span&gt;" style="rounded=0;whiteSpace=wrap;html=1;fontSize=18;labelBackgroundColor=none;labelBorderColor=none;fillColor=#fff2cc;strokeColor=#000000;fontFamily=JetBrains Mono;" parent="1" vertex="1">
                    <mxGeometry x="494" y="370" width="40" height="40" as="geometry"/>
                </mxCell>
                <mxCell id="92" value="&lt;span style=&quot;font-size: 16px;&quot;&gt;00&lt;/span&gt;" style="rounded=0;whiteSpace=wrap;html=1;fontSize=18;labelBackgroundColor=none;labelBorderColor=none;fillColor=#fff2cc;strokeColor=#000000;fontFamily=JetBrains Mono;" parent="1" vertex="1">
                    <mxGeometry x="454" y="370" width="40" height="40" as="geometry"/>
                </mxCell>
                <mxCell id="93" value="&lt;span style=&quot;font-size: 16px;&quot;&gt;00&lt;/span&gt;" style="rounded=0;whiteSpace=wrap;html=1;fontSize=18;labelBackgroundColor=none;labelBorderColor=none;fillColor=#fff2cc;strokeColor=#000000;fontFamily=JetBrains Mono;" parent="1" vertex="1">
                    <mxGeometry x="414" y="370" width="40" height="40" as="geometry"/>
                </mxCell>
                <mxCell id="94" value="&lt;span style=&quot;font-size: 16px;&quot;&gt;00&lt;/span&gt;" style="rounded=0;whiteSpace=wrap;html=1;fontSize=18;labelBackgroundColor=none;labelBorderColor=none;fillColor=#fff2cc;strokeColor=#000000;fontFamily=JetBrains Mono;" parent="1" vertex="1">
                    <mxGeometry x="254" y="330" width="40" height="40" as="geometry"/>
                </mxCell>
                <mxCell id="95" value="&lt;span style=&quot;font-size: 16px;&quot;&gt;00&lt;/span&gt;" style="rounded=0;whiteSpace=wrap;html=1;fontSize=18;labelBackgroundColor=none;labelBorderColor=none;fillColor=#fff2cc;strokeColor=#000000;fontFamily=JetBrains Mono;" parent="1" vertex="1">
                    <mxGeometry x="294" y="330" width="40" height="40" as="geometry"/>
                </mxCell>
                <mxCell id="96" value="&lt;span style=&quot;font-size: 16px;&quot;&gt;00&lt;/span&gt;" style="rounded=0;whiteSpace=wrap;html=1;fontSize=18;labelBackgroundColor=none;labelBorderColor=none;fillColor=#fff2cc;strokeColor=#000000;fontFamily=JetBrains Mono;" parent="1" vertex="1">
                    <mxGeometry x="334" y="330" width="40" height="40" as="geometry"/>
                </mxCell>
                <mxCell id="97" value="&lt;span style=&quot;font-size: 16px;&quot;&gt;00&lt;/span&gt;" style="rounded=0;whiteSpace=wrap;html=1;fontSize=18;labelBackgroundColor=none;labelBorderColor=none;fillColor=#fff2cc;strokeColor=#000000;fontFamily=JetBrains Mono;" parent="1" vertex="1">
                    <mxGeometry x="374" y="330" width="40" height="40" as="geometry"/>
                </mxCell>
                <mxCell id="98" value="&lt;span style=&quot;font-size: 16px;&quot;&gt;00&lt;/span&gt;" style="rounded=0;whiteSpace=wrap;html=1;fontSize=18;labelBackgroundColor=none;labelBorderColor=none;fillColor=#fff2cc;strokeColor=#000000;fontFamily=JetBrains Mono;" parent="1" vertex="1">
                    <mxGeometry x="534" y="330" width="40" height="40" as="geometry"/>
                </mxCell>
                <mxCell id="99" value="&lt;span style=&quot;font-size: 16px;&quot;&gt;00&lt;/span&gt;" style="rounded=0;whiteSpace=wrap;html=1;fontSize=18;labelBackgroundColor=none;labelBorderColor=none;fillColor=#fff2cc;strokeColor=#000000;fontFamily=JetBrains Mono;" parent="1" vertex="1">
                    <mxGeometry x="494" y="330" width="40" height="40" as="geometry"/>
                </mxCell>
                <mxCell id="100" value="&lt;span style=&quot;font-size: 16px;&quot;&gt;00&lt;/span&gt;" style="rounded=0;whiteSpace=wrap;html=1;fontSize=18;labelBackgroundColor=none;labelBorderColor=none;fillColor=#fff2cc;strokeColor=#000000;fontFamily=JetBrains Mono;" parent="1" vertex="1">
                    <mxGeometry x="454" y="330" width="40" height="40" as="geometry"/>
                </mxCell>
                <mxCell id="101" value="&lt;span style=&quot;font-size: 16px;&quot;&gt;00&lt;/span&gt;" style="rounded=0;whiteSpace=wrap;html=1;fontSize=18;labelBackgroundColor=none;labelBorderColor=none;fillColor=#fff2cc;strokeColor=#000000;fontFamily=JetBrains Mono;" parent="1" vertex="1">
                    <mxGeometry x="414" y="330" width="40" height="40" as="geometry"/>
                </mxCell>
                <mxCell id="102" value="&lt;span style=&quot;font-size: 16px;&quot;&gt;00&lt;/span&gt;" style="rounded=0;whiteSpace=wrap;html=1;fontSize=18;labelBackgroundColor=none;labelBorderColor=none;fillColor=#fff2cc;strokeColor=#000000;fontFamily=JetBrains Mono;" parent="1" vertex="1">
                    <mxGeometry x="254" y="290" width="40" height="40" as="geometry"/>
                </mxCell>
                <mxCell id="103" value="&lt;span style=&quot;font-size: 16px;&quot;&gt;00&lt;/span&gt;" style="rounded=0;whiteSpace=wrap;html=1;fontSize=18;labelBackgroundColor=none;labelBorderColor=none;fillColor=#fff2cc;strokeColor=#000000;fontFamily=JetBrains Mono;" parent="1" vertex="1">
                    <mxGeometry x="294" y="290" width="40" height="40" as="geometry"/>
                </mxCell>
                <mxCell id="104" value="&lt;span style=&quot;font-size: 16px;&quot;&gt;00&lt;/span&gt;" style="rounded=0;whiteSpace=wrap;html=1;fontSize=18;labelBackgroundColor=none;labelBorderColor=none;fillColor=#fff2cc;strokeColor=#000000;fontFamily=JetBrains Mono;" parent="1" vertex="1">
                    <mxGeometry x="334" y="290" width="40" height="40" as="geometry"/>
                </mxCell>
                <mxCell id="105" value="&lt;span style=&quot;font-size: 16px;&quot;&gt;00&lt;/span&gt;" style="rounded=0;whiteSpace=wrap;html=1;fontSize=18;labelBackgroundColor=none;labelBorderColor=none;fillColor=#fff2cc;strokeColor=#000000;fontFamily=JetBrains Mono;" parent="1" vertex="1">
                    <mxGeometry x="374" y="290" width="40" height="40" as="geometry"/>
                </mxCell>
                <mxCell id="106" value="&lt;span style=&quot;font-size: 16px;&quot;&gt;00&lt;/span&gt;" style="rounded=0;whiteSpace=wrap;html=1;fontSize=18;labelBackgroundColor=none;labelBorderColor=none;fillColor=#fff2cc;strokeColor=#000000;fontFamily=JetBrains Mono;" parent="1" vertex="1">
                    <mxGeometry x="534" y="290" width="40" height="40" as="geometry"/>
                </mxCell>
                <mxCell id="107" value="&lt;span style=&quot;font-size: 16px;&quot;&gt;00&lt;/span&gt;" style="rounded=0;whiteSpace=wrap;html=1;fontSize=18;labelBackgroundColor=none;labelBorderColor=none;fillColor=#fff2cc;strokeColor=#000000;fontFamily=JetBrains Mono;" parent="1" vertex="1">
                    <mxGeometry x="494" y="290" width="40" height="40" as="geometry"/>
                </mxCell>
                <mxCell id="108" value="&lt;span style=&quot;font-size: 16px;&quot;&gt;00&lt;/span&gt;" style="rounded=0;whiteSpace=wrap;html=1;fontSize=18;labelBackgroundColor=none;labelBorderColor=none;fillColor=#fff2cc;strokeColor=#000000;fontFamily=JetBrains Mono;" parent="1" vertex="1">
                    <mxGeometry x="454" y="290" width="40" height="40" as="geometry"/>
                </mxCell>
                <mxCell id="109" value="&lt;span style=&quot;font-size: 16px;&quot;&gt;00&lt;/span&gt;" style="rounded=0;whiteSpace=wrap;html=1;fontSize=18;labelBackgroundColor=none;labelBorderColor=none;fillColor=#fff2cc;strokeColor=#000000;fontFamily=JetBrains Mono;" parent="1" vertex="1">
                    <mxGeometry x="414" y="290" width="40" height="40" as="geometry"/>
                </mxCell>
                <mxCell id="110" value="" style="curved=1;endArrow=classic;html=1;exitX=0.5;exitY=0.5;exitDx=0;exitDy=0;exitPerimeter=0;dashed=1;entryX=0.75;entryY=0.5;entryDx=0;entryDy=0;entryPerimeter=0;fontFamily=JetBrains Mono;" parent="1" source="24" target="27" edge="1">
                    <mxGeometry width="50" height="50" relative="1" as="geometry">
                        <mxPoint x="354" y="360" as="sourcePoint"/>
                        <mxPoint x="594" y="470" as="targetPoint"/>
                        <Array as="points">
                            <mxPoint x="614" y="370"/>
                            <mxPoint x="634" y="450"/>
                        </Array>
                    </mxGeometry>
                </mxCell>
                <mxCell id="111" value="&lt;font face=&quot;思源黑体&quot;&gt;跳转到注入的代码&lt;/font&gt;" style="text;html=1;strokeColor=none;fillColor=none;align=center;verticalAlign=middle;whiteSpace=wrap;rounded=0;fontSize=18;fontFamily=JetBrains Mono;" parent="1" vertex="1">
                    <mxGeometry x="604" y="345" width="70" height="30" as="geometry"/>
                </mxCell>
                <mxCell id="112" value="&lt;font&gt;&lt;span style=&quot;font-size: 16px;&quot;&gt;35&lt;/span&gt;&lt;/font&gt;" style="rounded=0;whiteSpace=wrap;html=1;fontSize=18;fillColor=#ffff88;strokeColor=#36393d;labelBackgroundColor=none;labelBorderColor=none;fontFamily=JetBrains Mono;" parent="1" vertex="1">
                    <mxGeometry x="534" y="210" width="40" height="40" as="geometry"/>
                </mxCell>
                <mxCell id="113" value="&lt;font&gt;&lt;span style=&quot;font-size: 16px;&quot;&gt;39&lt;/span&gt;&lt;/font&gt;" style="rounded=0;whiteSpace=wrap;html=1;fontSize=18;fillColor=#ffff88;strokeColor=#36393d;labelBackgroundColor=none;labelBorderColor=none;fontFamily=JetBrains Mono;" parent="1" vertex="1">
                    <mxGeometry x="494" y="210" width="40" height="40" as="geometry"/>
                </mxCell>
                <mxCell id="114" value="&lt;font&gt;&lt;span style=&quot;font-size: 16px;&quot;&gt;62&lt;/span&gt;&lt;/font&gt;" style="rounded=0;whiteSpace=wrap;html=1;fontSize=18;fillColor=#ffff88;strokeColor=#36393d;labelBackgroundColor=none;labelBorderColor=none;fontFamily=JetBrains Mono;" parent="1" vertex="1">
                    <mxGeometry x="454" y="210" width="40" height="40" as="geometry"/>
                </mxCell>
                <mxCell id="115" value="&lt;font&gt;&lt;span style=&quot;font-size: 16px;&quot;&gt;39&lt;/span&gt;&lt;/font&gt;" style="rounded=0;whiteSpace=wrap;html=1;fontSize=18;fillColor=#ffff88;strokeColor=#36393d;labelBackgroundColor=none;labelBorderColor=none;fontFamily=JetBrains Mono;" parent="1" vertex="1">
                    <mxGeometry x="414" y="210" width="40" height="40" as="geometry"/>
                </mxCell>
                <mxCell id="116" value="&lt;font&gt;&lt;span style=&quot;font-size: 16px;&quot;&gt;39&lt;/span&gt;&lt;/font&gt;" style="rounded=0;whiteSpace=wrap;html=1;fontSize=18;fillColor=#ffff88;strokeColor=#36393d;labelBackgroundColor=none;labelBorderColor=none;fontFamily=JetBrains Mono;" parent="1" vertex="1">
                    <mxGeometry x="374" y="210" width="40" height="40" as="geometry"/>
                </mxCell>
                <mxCell id="117" value="&lt;font&gt;&lt;span style=&quot;font-size: 16px;&quot;&gt;37&lt;/span&gt;&lt;/font&gt;" style="rounded=0;whiteSpace=wrap;html=1;fontSize=18;fillColor=#ffff88;strokeColor=#36393d;labelBackgroundColor=none;labelBorderColor=none;fontFamily=JetBrains Mono;" parent="1" vertex="1">
                    <mxGeometry x="334" y="210" width="40" height="40" as="geometry"/>
                </mxCell>
                <mxCell id="118" value="&lt;font&gt;&lt;span style=&quot;font-size: 16px;&quot;&gt;66&lt;/span&gt;&lt;/font&gt;" style="rounded=0;whiteSpace=wrap;html=1;fontSize=18;fillColor=#ffff88;strokeColor=#36393d;labelBackgroundColor=none;labelBorderColor=none;fontFamily=JetBrains Mono;" parent="1" vertex="1">
                    <mxGeometry x="294" y="210" width="40" height="40" as="geometry"/>
                </mxCell>
                <mxCell id="120" value="&lt;font&gt;&lt;span style=&quot;font-size: 16px;&quot;&gt;61&lt;/span&gt;&lt;/font&gt;" style="rounded=0;whiteSpace=wrap;html=1;fontSize=18;fillColor=#ffff88;strokeColor=#36393d;labelBackgroundColor=none;labelBorderColor=none;fontFamily=JetBrains Mono;" parent="1" vertex="1">
                    <mxGeometry x="254" y="210" width="40" height="40" as="geometry"/>
                </mxCell>
                <mxCell id="121" value="&lt;font&gt;&lt;span style=&quot;font-size: 16px;&quot;&gt;00&lt;/span&gt;&lt;/font&gt;" style="rounded=0;whiteSpace=wrap;html=1;fontSize=18;fillColor=#ffff88;strokeColor=#36393d;labelBackgroundColor=none;labelBorderColor=none;fontFamily=JetBrains Mono;" parent="1" vertex="1">
                    <mxGeometry x="534" y="170" width="40" height="40" as="geometry"/>
                </mxCell>
                <mxCell id="123" style="edgeStyle=none;html=1;exitX=0;exitY=0.75;exitDx=0;exitDy=0;entryX=1;entryY=0.5;entryDx=0;entryDy=0;fontFamily=JetBrains Mono;" parent="1" source="122" target="112" edge="1">
                    <mxGeometry relative="1" as="geometry"/>
                </mxCell>
                <mxCell id="122" value="&lt;font face=&quot;思源黑体&quot;&gt;字符串&lt;/font&gt;(59b997fa\0)&lt;br&gt;&lt;font face=&quot;思源黑体&quot;&gt;(地址：5561DCA8)&lt;/font&gt;" style="text;html=1;strokeColor=none;fillColor=none;align=center;verticalAlign=middle;whiteSpace=wrap;rounded=0;fontSize=18;fontFamily=JetBrains Mono;" parent="1" vertex="1">
                    <mxGeometry x="610" y="190" width="200" height="30" as="geometry"/>
                </mxCell>
            </root>
        </mxGraphModel>
    </diagram>
</mxfile>